<?xml version="1.0" standalone="no"?><svg xmlns="http://www.w3.org/2000/svg" viewBox="0 0 1440 320"><path fill="hsla(10, 85%, 50%, 0.4)" fill-opacity="1" d="M0,128L15,122.7C30,117,60,107,90,101.3C120,96,150,96,180,128C210,160,240,224,270,218.7C300,213,330,139,360,117.3C390,96,420,128,450,165.3C480,203,510,245,540,256C570,267,600,245,630,213.3C660,181,690,139,720,101.3C750,64,780,32,810,64C840,96,870,192,900,202.7C930,213,960,139,990,138.7C1020,139,1050,213,1080,240C1110,267,1140,245,1170,208C1200,171,1230,117,1260,117.3C1290,117,1320,171,1350,176C1380,181,1410,139,1425,117.3L1440,96L1440,320L1425,320C1410,320,1380,320,1350,320C1320,320,1290,320,1260,320C1230,320,1200,320,1170,320C1140,320,1110,320,1080,320C1050,320,1020,320,990,320C960,320,930,320,900,320C870,320,840,320,810,320C780,320,750,320,720,320C690,320,660,320,630,320C600,320,570,320,540,320C510,320,480,320,450,320C420,320,390,320,360,320C330,320,300,320,270,320C240,320,210,320,180,320C150,320,120,320,90,320C60,320,30,320,15,320L0,320Z"></path></svg>